<svg width="0" height="0" class="hidden">
  <symbol xmlns="http://www.w3.org/2000/svg" fill="none" stroke-width="2" stroke-linecap="round" stroke-linejoin="round" viewBox="0 0 24 24" id="corner-right-down">
    <polyline points="10 15 15 20 20 15"></polyline>
    <path d="M4 4h7a4 4 0 0 1 4 4v12"></path>
  </symbol>
  <symbol xmlns="http://www.w3.org/2000/svg" fill="none" stroke-width="2" stroke-linecap="round" stroke-linejoin="round" viewBox="0 0 24 24" id="corner-right-up">
    <polyline points="10 9 15 4 20 9"></polyline>
    <path d="M4 20h7a4 4 0 0 0 4-4V4"></path>
  </symbol>
  <symbol xmlns="http://www.w3.org/2000/svg"  viewBox="0 0 72 60" id="menu">>
    <svg>
      <path d="M90 0H0V10.7143H90V0ZM29.8398 21.4286H0V32.1429H29.8398V21.4286ZM61.1875 21.4286V32.1429H90V21.4286H61.1875ZM29.8398 42.8571H0V53.5714H41.1953C41.6979 51.4989 41.9492 49.0819 41.9492 46.3203V43H29.8398V42.8571ZM58.1785 53.5714C59.4691 50.4048 60.3445 46.8334 60.8048 42.8571H90V53.5714H58.1785ZM29.8398 64.2857V71.9062C38.5713 71.1446 45.4787 68.6045 50.5621 64.2857H90V75H0V64.2857H29.8398Z"/>
    </svg>
</svg>
